<svg id="about-doctors" xmlns="http://www.w3.org/2000/svg" width="600" height="400" viewBox="0 0 600 400">
  <style>
    .st0{fill:#F5F7FF;}.st1{fill:#3E64FF;}.st2{fill:#FFFFFF;}.st3{fill:#E6E9FC;}
  </style>
  <ellipse class="st0" cx="300" cy="350" rx="280" ry="40"/>
  <g>
    <path class="st1" d="M187.2,256.6c4-8,9.8-15.1,17.3-19.5c7.5-4.4,16.8-5.6,24.8-2.3c7.7,3.2,13.5,10.1,16.4,17.9
      c2.9,7.8,3.3,16.3,2.7,24.5c-0.6,8.3-2,17.4,1.3,25c3.7,8.6,12.8,14.3,22.1,15.5c9.3,1.2,18.8-1.4,27.3-5.3c8.5-3.9,16.6-9,26-10.3
      c9.4-1.3,19.7,1.8,24.4,9.6c4.4,7.3,3,16.7-0.2,24.4c-3.2,7.7-8.1,14.5-10.2,22.5c-2.1,8.1-0.2,17.4,6.3,22.6
      c5.4,4.3,12.8,5.4,19.8,5.4c7,0,14-0.4,21-2c6.9-1.6,13.6-4.7,18.8-9.5c5.2-4.8,8.9-11.2,10.2-18.1c1.3-6.9,0.2-14.1-2-20.8"/>
    <path class="st1" d="M357.5,301.7c3-8.2,6-17,2.8-25.3c-3.2-8.3-13-14.1-21.5-11.4c-8.7,2.7-14.1,11.9-15.5,21
      c-1.3,9.1-0.1,18.2,1.1,27.2c1.2,9,2.8,18,0.8,26.8c-1.9,8.5-7.4,16.1-14.7,21c-7.3,4.9-16.1,7.2-25,8c-8.9,0.8-18.1,0.2-26.9,1.9
      c-8.8,1.7-17.3,6.3-21.7,14.1c-4.9,8.6-3.5,19.3-0.4,28.5c3.1,9.3,8,18.1,9.5,27.8c1.5,9.7-0.7,20.4-8.3,26.7
      c-6.2,5.2-14.8,6.6-23,6.7"/>
    <g>
      <ellipse class="st2" cx="230" cy="170" rx="60" ry="70"/>
      <path class="st1" d="M230,110c-27.6,0-50,26.9-50,60s22.4,60,50,60s50-26.9,50-60S257.6,110,230,110z M230,220
        c-22.1,0-40-22.4-40-50s17.9-50,40-50s40,22.4,40,50S252.1,220,230,220z"/>
      <path class="st3" d="M240,180c0,22.1-4.5,40-10,40s-10-17.9-10-40s4.5-40,10-40S240,157.9,240,180z"/>
      <path class="st3" d="M260,180c0,16.6-13.4,30-30,30s-30-13.4-30-30s13.4-30,30-30S260,163.4,260,180z"/>
      <path class="st2" d="M245,180c0,8.3-6.7,15-15,15s-15-6.7-15-15s6.7-15,15-15S245,171.7,245,180z"/>
      <path class="st1" d="M235,180c0,2.8-2.2,5-5,5s-5-2.2-5-5s2.2-5,5-5S235,177.2,235,180z"/>
    </g>
    <g>
      <ellipse class="st2" cx="370" cy="170" rx="60" ry="70"/>
      <path class="st1" d="M370,110c-27.6,0-50,26.9-50,60s22.4,60,50,60s50-26.9,50-60S397.6,110,370,110z M370,220
        c-22.1,0-40-22.4-40-50s17.9-50,40-50s40,22.4,40,50S392.1,220,370,220z"/>
      <path class="st3" d="M380,180c0,22.1-4.5,40-10,40s-10-17.9-10-40s4.5-40,10-40S380,157.9,380,180z"/>
      <path class="st3" d="M400,180c0,16.6-13.4,30-30,30s-30-13.4-30-30s13.4-30,30-30S400,163.4,400,180z"/>
      <path class="st2" d="M385,180c0,8.3-6.7,15-15,15s-15-6.7-15-15s6.7-15,15-15S385,171.7,385,180z"/>
      <path class="st1" d="M375,180c0,2.8-2.2,5-5,5s-5-2.2-5-5s2.2-5,5-5S375,177.2,375,180z"/>
    </g>
    <path class="st1" d="M300,220c-5.5,0-10,4.5-10,10v20c0,5.5,4.5,10,10,10s10-4.5,10-10v-20C310,224.5,305.5,220,300,220z"/>
    <path class="st3" d="M230,240h140v50c0,27.6-31.3,50-70,50s-70-22.4-70-50V240z"/>
    <path class="st1" d="M270,310c-5.5,0-10-4.5-10-10s4.5-10,10-10c5.5,0,10,4.5,10,10S275.5,310,270,310z"/>
    <path class="st1" d="M330,310c-5.5,0-10-4.5-10-10s4.5-10,10-10s10,4.5,10,10S335.5,310,330,310z"/>
  </g>
</svg>