<svg id="contact-us" xmlns="http://www.w3.org/2000/svg" width="500" height="400" viewBox="0 0 500 400">
  <style>
    .st0{fill:#F5F7FF;}.st1{fill:#3E64FF;}.st2{fill:#FFFFFF;}.st3{fill:#E6E9FC;}.st4{fill:#2E4EBF;}
  </style>
  <ellipse class="st0" cx="250" cy="370" rx="200" ry="30"/>
  <g>
    <rect x="100" y="150" class="st3" width="300" height="200" rx="10" ry="10"/>
    <rect x="120" y="170" class="st2" width="260" height="160" rx="5" ry="5"/>
    <path class="st1" d="M360,170H140c-2.8,0-5,2.2-5,5v20h230v-20C365,172.2,362.8,170,360,170z"/>
    <circle class="st4" cx="150" cy="180" r="5"/>
    <circle class="st4" cx="170" cy="180" r="5"/>
    <circle class="st4" cx="190" cy="180" r="5"/>
    <rect x="140" y="210" class="st3" width="220" height="20" rx="5" ry="5"/>
    <rect x="140" y="240" class="st3" width="220" height="20" rx="5" ry="5"/>
    <rect x="140" y="270" class="st3" width="220" height="40" rx="5" ry="5"/>
    <rect x="290" y="320" class="st1" width="70" height="30" rx="15" ry="15"/>
    <text x="305" y="340" font-family="Arial" font-size="14" fill="#FFFFFF">Envoyer</text>
  </g>
  <g>
    <circle class="st0" cx="150" cy="100" r="50"/>
    <path class="st1" d="M170,100c0,11-9,20-20,20s-20-9-20-20s9-20,20-20S170,89,170,100z M150,130c-22.1,0-40,17.9-40,40v10h80v-10
      C190,147.9,172.1,130,150,130z"/>
    <circle class="st0" cx="350" cy="100" r="50"/>
    <path class="st1" d="M370,100c0,11-9,20-20,20s-20-9-20-20s9-20,20-20S370,89,370,100z M350,130c-22.1,0-40,17.9-40,40v10h80v-10
      C390,147.9,372.1,130,350,130z"/>
    <path class="st1" d="M310,80H190c-5.5,0-10,4.5-10,10v30c0,5.5,4.5,10,10,10h40l20,20l20-20h40c5.5,0,10-4.5,10-10V90
      C320,84.5,315.5,80,310,80z"/>
    <circle class="st2" cx="220" cy="105" r="5"/>
    <circle class="st2" cx="250" cy="105" r="5"/>
    <circle class="st2" cx="280" cy="105" r="5"/>
  </g>
</svg>