<svg id="doctor-hero" xmlns="http://www.w3.org/2000/svg" width="600" height="500" viewBox="0 0 600 500">
  <style>
    .st0{fill:#F5F7FF;}.st1{fill:#3E64FF;}.st2{fill:#FFFFFF;}.st3{fill:#E6E9FC;}.st4{fill:#D0D7FC;}
  </style>
  <ellipse class="st0" cx="300" cy="430" rx="280" ry="40"/>
  <g>
    <path class="st1" d="M351.2,308.6c-1.5-4.3-3.9-8.3-7.6-10.8c-3.7-2.5-8.5-3.2-12.6-1.2c-3.9,1.9-6.3,5.9-7.2,9.9
      c-1,4-0.6,8.2,0,12.3c0.6,4.1,1.2,8.3-0.2,12.2c-1.6,4.4-5.7,7.6-10.3,8.8s-9.4,0.9-14-0.3c-4.6-1.2-9-2.9-13.9-2.8
      c-4.9,0.1-9.8,2.2-12.2,6.4c-2.3,3.9-1.8,8.6-0.5,12.8c1.3,4.2,3.5,8.1,4.1,12.5c0.6,4.4-0.5,9.1-4,12c-2.9,2.4-6.8,3-10.5,3
      c-3.7,0-7.4-0.6-11-0.1c-3.5,0.5-6.9,2.2-9.5,4.7c-2.6,2.5-4.5,5.7-5.7,9.1c-1.2,3.4-1.8,7-2,10.6c2.3,2.1,5.2,3.8,8.4,3.9
      c3.1,0.1,6.2-1.5,7.9-4.2"/>
    <path class="st1" d="M261.5,336.7c-1.4-4.2-2.6-8.7-1.5-13c1.1-4.3,4.8-8,9.3-8.2c4.6-0.2,8.9,3,11.4,6.8c2.5,3.8,3.5,8.3,3.9,12.8
      c0.4,4.5,0.2,9,1.5,13.3c1.2,4.2,4,7.8,7.6,10.3c3.6,2.5,7.9,3.7,12.2,4.1c4.3,0.4,8.7,0.1,12.9,1c4.2,0.9,8.2,3,10.9,6.4
      c2.9,3.7,3.9,8.6,3.4,13.2c-0.5,4.6-2,9.1-2.3,13.7c-0.3,4.6,0.5,9.4,3.4,13c2.4,3,6.1,4.9,9.9,5.9"/>
    <ellipse class="st0" cx="300" cy="220" rx="90" ry="110"/>
    <ellipse class="st2" cx="300" cy="215" rx="80" ry="100"/>
    <path class="st3" d="M350,280c0,2.5-0.2,5-0.6,7.4c-6.1,37.7-54.8,67.4-98.8,0c-0.4-2.4-0.6-4.9-0.6-7.4c0-38.1,22.4-69,50-69
      S350,241.9,350,280z"/>
    <path class="st4" d="M349.4,287.4c-6.8,35.3-55.8,62.1-99.4,0c1.6-5.2,3.7-10.1,6.3-14.5c8.6-14.5,23-23.9,39.4-23.9
      c20.4,0,37.9,14.6,44.2,34.8C342.3,283.8,349.4,287.4,349.4,287.4z"/>
    <path class="st2" d="M270,160.6v37.5h60v-37.5H270z"/>
    <path class="st2" d="M270,198.1h60v20h-60V198.1z"/>
    <path class="st1" d="M264,220.1v-63c0-6.6,5.4-12,12-12h48c6.6,0,12,5.4,12,12v63H264z"/>
    <path class="st2" d="M288,134.7c-9.5,4.6-16,14.4-16,25.7v12.2h56v-12.2c0-11.3-6.5-21.1-16-25.7C312,134.7,288,134.7,288,134.7z"/>
    <path class="st1" d="M288,134.7c-2.7,1.3-5.1,3-7.1,4.9c7.2,6,11.8,15.1,11.8,25.3v7.7h35.3v-12.2c0-11.3-6.5-21.1-16-25.7
      C312,134.7,288,134.7,288,134.7z"/>
    <ellipse class="st2" cx="300" cy="110" rx="35" ry="45"/>
    <path class="st1" d="M323.1,99.1c-2-5.2-5.2-9.9-9.5-13.5c-11-9.3-27.3-9.1-37.9,0.5c-10,9.1-13.5,24.3-8.8,37.3
      c6.1,17,26.1,26.7,42.9,21C328.1,137,334.1,112.8,323.1,99.1z"/>
    <path class="st2" d="M278.1,110c0-24.9,17.9-45,40-45c7.6,0,14.7,2.2,20.7,6c-8.4-13.5-23.3-22.5-40.7-22.5
      c-26.5,0-48,21.5-48,48s21.5,48,48,48c17.4,0,32.3-9,40.7-22.5c-6,3.8-13.1,6-20.7,6C296,148,278.1,134.9,278.1,110z"/>
    <path class="st0" d="M304.7,155.3h-9.3c-0.8,0-1.4,0.6-1.4,1.4v13.2c0,0.8,0.6,1.4,1.4,1.4h9.3c0.8,0,1.4-0.6,1.4-1.4v-13.2
      C306.1,155.9,305.5,155.3,304.7,155.3z"/>
  </g>
</svg>